<?xml version="1.0" standalone="no"?>
<!DOCTYPE svg PUBLIC "-//W3C//DTD SVG 20010904//EN"
 "http://www.w3.org/TR/2001/REC-SVG-20010904/DTD/svg10.dtd">
<svg version="1.0" xmlns="http://www.w3.org/2000/svg"
 width="2048.000000pt" height="2048.000000pt" viewBox="0 0 2048.000000 2048.000000"
 preserveAspectRatio="xMidYMid meet">

<g transform="translate(0.000000,2048.000000) scale(0.100000,-0.100000)"
fill="#000000" stroke="none">
<path d="M3110 19429 c-71 -20 -110 -45 -148 -93 -30 -40 -30 -122 1 -202 13
-32 43 -108 67 -169 23 -60 57 -148 75 -195 27 -68 201 -521 285 -740 41 -108
234 -609 250 -650 9 -25 88 -229 175 -455 87 -225 166 -430 175 -455 15 -38
196 -511 250 -650 27 -71 381 -990 400 -1040 60 -155 285 -739 435 -1130 65
-168 125 -325 135 -350 10 -25 74 -191 142 -370 332 -865 417 -1086 443 -1150
21 -53 99 -255 260 -675 150 -390 294 -765 325 -845 10 -25 65 -169 123 -320
58 -151 142 -369 187 -485 44 -115 135 -352 202 -525 66 -173 129 -335 138
-360 10 -25 82 -211 160 -415 78 -203 150 -390 160 -415 9 -25 66 -171 125
-325 59 -154 115 -300 125 -325 9 -25 88 -229 175 -455 87 -225 166 -430 175
-455 14 -36 161 -418 250 -650 9 -25 93 -241 185 -480 198 -515 202 -525 219
-570 14 -36 60 -156 351 -910 191 -497 201 -522 219 -570 27 -71 256 -668 296
-770 23 -58 89 -229 147 -380 58 -151 113 -295 123 -320 10 -25 77 -200 149
-390 133 -348 147 -380 185 -414 96 -86 305 -72 379 25 14 19 137 326 277 694
715 1874 1145 2997 1170 3060 16 39 47 120 70 180 23 61 46 119 51 130 5 11
20 49 33 85 31 84 77 206 133 350 25 63 58 149 73 190 35 97 216 571 240 630
10 25 479 1253 1043 2730 564 1477 1595 4177 2292 6000 697 1823 1361 3561
1476 3862 126 330 209 561 209 582 0 70 -40 129 -115 169 l-40 22 -7110 2
c-4534 1 -7123 -2 -7145 -8z m9738 -3194 c2 -2 -7 -34 -21 -72 -46 -125 -105
-286 -172 -473 -36 -102 -84 -232 -105 -290 -21 -58 -73 -202 -115 -320 -42
-118 -94 -262 -115 -320 -21 -58 -68 -187 -104 -287 -36 -101 -96 -265 -132
-365 -36 -101 -83 -230 -104 -288 -21 -58 -91 -251 -155 -430 -64 -179 -125
-347 -135 -375 -11 -27 -40 -108 -65 -180 -79 -222 -107 -299 -115 -320 -5
-11 -23 -60 -40 -110 -17 -49 -40 -112 -50 -140 -11 -27 -40 -108 -65 -180
-26 -71 -64 -179 -87 -240 -22 -60 -50 -139 -63 -175 -74 -206 -347 -962 -402
-1115 -35 -99 -82 -227 -103 -285 -39 -108 -277 -767 -357 -990 -24 -69 -54
-151 -65 -183 -23 -63 -31 -73 -46 -54 -5 6 -253 676 -550 1487 -534 1454
-1174 3200 -1397 3805 -340 926 -695 1898 -695 1904 0 6 5251 3 5258 -4z"/>
</g>
</svg>
